{
.appVersion = "3132";
.formatVersion = 3;
DisplayStrings = (
"אבגדהוזחטיכלמנסעפצקרש",
"אבגדהוזחטיכלמנסעפצקרשת",
"/bet-hb.case/gimel-hb.case/dalet-hb.case/he-hb.case/vav-hb.case/zayin-hb.case/het-hb.case/tet-hb.case/yod-hb.case/mem-hb.case/nun-hb.case/samekh-hb.case/ayin-hb.case/pe-hb.case/tsadi-hb.case/qof-hb.case/resh-hb.case/shin-hb.case/tav-hb.case",
"",
"/bet-hb.case/gimel-hb.case/dalet-hb.case/he-hb.case/vav-hb.case/zayin-hb.case/het-hb.case/tet-hb.case/yod-hb.case/kaf-hb.case/lamed-hb.case/mem-hb.case/nun-hb.case/samekh-hb.case/ayin-hb.case/pe-hb.case/tsadi-hb.case/qof-hb.case/resh-hb.case/shin-hb.case/tav-hb.case אבגדהוזחטיכלמנסעפצקרשת"
);
customParameters = (
{
name = glyphOrder;
value = (
.notdef,
space,
"alef-hb",
"bet-hb",
"gimel-hb",
"dalet-hb",
"he-hb",
"vav-hb",
"zayin-hb",
"het-hb",
"tet-hb",
"yod-hb",
"kaf-hb",
"vav-hb",
"lamed-hb",
"mem-hb",
"nun-hb",
"samekh-hb",
"ayin-hb",
"pe-hb",
"tsadi-hb",
"qof-hb",
"resh-hb",
"shin-hb",
"tav-hb",
"alef-hb.case",
"bet-hb.case",
"gimel-hb.case",
"dalet-hb.case",
"he-hb.case",
"vav-hb.case",
"zayin-hb.case",
"het-hb.case",
"tet-hb.case",
"yod-hb.case",
"kaf-hb.case",
"lamed-hb.case",
"mem-hb.case",
"nun-hb.case",
"samekh-hb.case",
"ayin-hb.case",
"pe-hb.case",
"tsadi-hb.case",
"qof-hb.case",
"resh-hb.case",
"shin-hb.case",
"tav-hb.case"
);
}
);
date = "2022-06-16 10:21:29 +0000";
familyName = "Cable Bold New Hebrew Typography";
fontMaster = (
{
id = m01;
metricValues = (
{
over = 16;
pos = 800;
},
{
over = -16;
},
{
over = -16;
pos = -200;
}
);
name = Regular;
}
);
glyphs = (
{
glyphname = "alef-hb";
lastChange = "2022-06-16 11:03:12 +0000";
layers = (
{
layerId = m01;
shapes = (
{
closed = 1;
nodes = (
(571,-1,o),
(560,-1,o),
(549,-1,c),
(519,-3,o),
(495,3,o),
(475,33,c),
(436,94,o),
(388,150,o),
(349,212,c),
(336,234,o),
(318,254,o),
(302,276,c),
(292,293,o),
(279,290,o),
(266,280,c),
(197,224,o),
(171,170,o),
(202,77,c),
(207,62,o),
(219,52,o),
(226,39,c),
(233,23,o),
(231,12,o),
(210,9,c),
(181,5,o),
(152,0,o),
(123,-3,c),
(97,-5,o),
(71,26,o),
(71,52,c),
(70,73,o),
(63,94,o),
(61,114,c),
(53,190,o),
(76,256,o),
(119,319,c),
(141,351,o),
(174,369,o),
(205,389,c),
(215,394,o),
(214,399,o),
(209,406,c),
(154,471,o),
(111,545,o),
(55,610,c),
(51,615,o),
(49,620,o),
(51,628,c),
(54,636,o),
(61,638,o),
(68,637,c),
(107,637,o),
(146,637,o),
(185,634,c),
(206,632,o),
(211,608,o),
(222,594,c),
(258,547,o),
(293,501,o),
(328,452,c),
(340,437,o),
(350,419,o),
(361,402,c),
(367,393,o),
(370,386,o),
(379,402,c),
(427,475,o),
(478,546,o),
(527,618,c),
(536,632,o),
(551,631,o),
(565,632,c),
(592,633,o),
(620,636,o),
(647,637,c),
(656,637,o),
(668,638,o),
(673,628,c),
(679,618,o),
(673,607,o),
(665,599,c),
(652,584,o),
(640,568,o),
(630,553,c),
(597,507,o),
(564,464,o),
(532,419,c),
(505,380,o),
(479,339,o),
(449,302,c),
(444,295,o),
(444,290,o),
(449,285,c),
(480,251,o),
(503,212,o),
(530,176,c),
(566,126,o),
(604,77,o),
(640,27,c),
(646,21,o),
(652,14,o),
(649,7,c),
(646,-3,o),
(635,0,o),
(627,0,c),
(613,-1,o),
(597,0,o),
(583,0,c),
(583,-1,o),
(583,-1,o),
(583,-1,c)
);
}
);
width = 725;
}
);
unicode = 1488;
},
{
glyphname = "bet-hb";
lastChange = "2022-06-16 11:05:20 +0000";
layers = (
{
layerId = m01;
shapes = (
{
closed = 1;
nodes = (
(295,-1,o),
(240,3,o),
(184,5,c),
(154,7,o),
(124,-1,o),
(94,4,c),
(77,7,o),
(69,14,o),
(68,29,c),
(65,55,o),
(59,81,o),
(52,105,c),
(46,127,o),
(55,137,o),
(77,135,c),
(162,130,o),
(246,129,o),
(331,127,c),
(347,127,o),
(351,134,o),
(351,150,c),
(351,252,o),
(350,354,o),
(351,455,c),
(351,504,o),
(354,504,o),
(303,504,c),
(246,503,o),
(188,502,o),
(129,502,c),
(116,502,o),
(103,504,o),
(89,507,c),
(77,508,o),
(73,517,o),
(76,530,c),
(82,562,o),
(89,593,o),
(103,623,c),
(111,640,o),
(134,638,o),
(143,636,c),
(168,628,o),
(191,631,o),
(216,631,c),
(264,628,o),
(315,629,o),
(363,629,c),
(396,629,o),
(428,631,o),
(461,628,c),
(475,627,o),
(477,618,o),
(476,606,c),
(470,525,o),
(475,446,o),
(472,365,c),
(471,281,o),
(467,195,o),
(471,111,c),
(472,85,o),
(467,60,o),
(471,34,c),
(476,12,o),
(461,1,o),
(440,0,c),
(410,0,o),
(381,0,o),
(351,0,c)
);
}
);
width = 526;
}
);
unicode = 1489;
},
{
glyphname = "gimel-hb";
lastChange = "2022-06-16 11:05:20 +0000";
layers = (
{
layerId = m01;
shapes = (
{
closed = 1;
nodes = (
(412,2,o),
(402,1,o),
(392,2,c),
(377,4,o),
(369,15,o),
(370,28,c),
(377,80,o),
(376,131,o),
(374,183,c),
(374,193,o),
(374,203,o),
(376,213,c),
(382,251,o),
(376,265,o),
(348,277,c),
(324,287,o),
(290,278,o),
(273,256,c),
(247,221,o),
(233,180,o),
(216,141,c),
(196,100,o),
(179,57,o),
(162,15,c),
(157,4,o),
(148,0,o),
(135,4,c),
(113,10,o),
(90,15,o),
(67,22,c),
(52,26,o),
(47,39,o),
(52,50,c),
(75,110,o),
(100,170,o),
(123,230,c),
(134,255,o),
(145,278,o),
(158,303,c),
(197,372,o),
(257,398,o),
(333,390,c),
(378,385,o),
(376,383,o),
(373,430,c),
(370,472,o),
(374,516,o),
(374,559,c),
(374,580,o),
(370,602,o),
(376,622,c),
(379,634,o),
(383,638,o),
(396,638,c),
(421,635,o),
(447,637,o),
(473,635,c),
(493,635,o),
(500,628,o),
(496,606,c),
(489,569,o),
(495,531,o),
(495,494,c),
(493,365,o),
(493,238,o),
(493,109,c),
(493,82,o),
(494,53,o),
(494,24,c),
(494,11,o),
(487,5,o),
(473,5,c),
(456,4,o),
(439,2,o),
(421,1,c),
(421,1,o),
(421,1,o),
(421,2,c)
);
}
);
width = 547;
}
);
unicode = 1490;
},
{
glyphname = "dalet-hb";
lastChange = "2022-06-16 11:05:20 +0000";
layers = (
{
layerId = m01;
shapes = (
{
closed = 1;
nodes = (
(368,2,o),
(360,2,o),
(354,2,c),
(334,2,o),
(324,10,o),
(324,31,c),
(325,93,o),
(325,156,o),
(325,220,c),
(325,262,o),
(321,305,o),
(324,348,c),
(326,395,o),
(321,442,o),
(328,487,c),
(329,503,o),
(324,509,o),
(309,508,c),
(257,503,o),
(205,512,o),
(152,506,c),
(125,502,o),
(96,509,o),
(69,508,c),
(52,507,o),
(43,533,o),
(56,555,c),
(66,573,o),
(69,594,o),
(74,613,c),
(78,629,o),
(87,634,o),
(103,634,c),
(195,633,o),
(287,632,o),
(380,630,c),
(395,630,o),
(410,628,o),
(424,636,c),
(430,639,o),
(442,638,o),
(443,633,c),
(449,623,o),
(452,610,o),
(451,599,c),
(450,590,o),
(446,581,o),
(446,572,c),
(447,489,o),
(445,407,o),
(449,324,c),
(451,256,o),
(446,188,o),
(451,122,c),
(454,91,o),
(449,60,o),
(452,27,c),
(454,15,o),
(445,6,o),
(433,6,c),
(413,4,o),
(394,-3,o),
(378,2,c)
);
}
);
width = 502;
}
);
unicode = 1491;
},
{
glyphname = "he-hb";
lastChange = "2022-06-16 11:05:20 +0000";
layers = (
{
layerId = m01;
shapes = (
{
closed = 1;
nodes = (
(503,2,o),
(482,-7,o),
(467,2,c),
(447,15,o),
(460,37,o),
(460,54,c),
(458,115,o),
(460,176,o),
(462,239,c),
(462,269,o),
(462,300,o),
(462,331,c),
(462,379,o),
(462,429,o),
(462,477,c),
(462,514,o),
(462,517,o),
(424,514,c),
(376,512,o),
(328,511,o),
(278,516,c),
(264,517,o),
(263,511,o),
(268,499,c),
(285,465,o),
(300,431,o),
(317,397,c),
(325,382,o),
(319,375,o),
(304,373,c),
(216,358,o),
(160,270,o),
(180,188,c),
(185,167,o),
(193,149,o),
(200,130,c),
(212,102,o),
(237,87,o),
(261,75,c),
(271,71,o),
(280,69,o),
(280,57,c),
(281,44,o),
(271,41,o),
(261,37,c),
(238,26,o),
(216,15,o),
(193,4,c),
(167,-9,o),
(143,-4,o),
(122,23,c),
(102,48,o),
(79,72,o),
(65,100,c),
(55,122,o),
(48,149,o),
(50,174,c),
(55,222,o),
(51,270,o),
(66,317,c),
(82,366,o),
(115,404,o),
(152,436,c),
(163,446,o),
(167,452,o),
(159,465,c),
(130,512,o),
(111,564,o),
(79,609,c),
(76,615,o),
(73,621,o),
(77,628,c),
(81,635,o),
(89,635,o),
(95,635,c),
(173,633,o),
(251,629,o),
(329,629,c),
(403,629,o),
(476,625,o),
(550,630,c),
(571,633,o),
(583,628,o),
(583,602,c),
(579,491,o),
(584,382,o),
(581,271,c),
(580,195,o),
(585,117,o),
(580,40,c),
(577,0,o),
(577,0,o),
(538,0,c),
(532,0,o),
(527,0,o),
(519,0,c)
);
}
);
width = 633;
}
);
unicode = 1492;
},
{
glyphname = "zayin-hb";
lastChange = "2022-06-16 11:05:20 +0000";
layers = (
{
layerId = m01;
shapes = (
{
closed = 1;
nodes = (
(205,533,o),
(203,514,o),
(205,493,c),
(206,468,o),
(212,446,o),
(233,426,c),
(284,376,o),
(322,317,o),
(333,243,c),
(344,178,o),
(319,130,o),
(281,83,c),
(238,31,o),
(181,15,o),
(120,6,c),
(103,2,o),
(93,10,o),
(86,27,c),
(77,49,o),
(65,71,o),
(56,93,c),
(52,101,o),
(47,110,o),
(54,118,c),
(60,126,o),
(69,122,o),
(78,122,c),
(128,117,o),
(172,131,o),
(203,170,c),
(225,196,o),
(220,251,o),
(201,285,c),
(179,324,o),
(147,352,o),
(112,376,c),
(89,391,o),
(91,413,o),
(90,434,c),
(88,497,o),
(88,559,o),
(86,622,c),
(86,635,o),
(91,642,o),
(106,642,c),
(130,644,o),
(155,645,o),
(180,645,c),
(197,645,o),
(205,637,o),
(205,619,c),
(203,597,o),
(205,576,o),
(205,554,c),
(205,554,o),
(205,554,o),
(205,554,c)
);
}
);
width = 386;
}
);
unicode = 1494;
},
{
glyphname = "het-hb";
lastChange = "2022-06-16 11:05:20 +0000";
layers = (
{
layerId = m01;
shapes = (
{
closed = 1;
nodes = (
(441,385,o),
(458,378,o),
(459,400,c),
(459,424,o),
(460,449,o),
(461,474,c),
(463,493,o),
(459,504,o),
(435,501,c),
(425,500,o),
(412,500,o),
(400,500,c),
(334,501,o),
(268,503,o),
(201,504,c),
(193,504,o),
(183,508,o),
(182,496,c),
(176,463,o),
(176,432,o),
(179,400,c),
(179,389,o),
(186,385,o),
(197,385,c),
(274,384,o),
(352,380,o),
(428,383,c)
);
},
{
closed = 1;
nodes = (
(290,272,o),
(240,272,o),
(192,272,c),
(180,272,o),
(178,270,o),
(178,255,c),
(179,190,o),
(178,124,o),
(176,58,c),
(175,4,o),
(175,6,o),
(121,3,c),
(102,3,o),
(83,-1,o),
(65,7,c),
(56,11,o),
(49,15,o),
(50,25,c),
(58,77,o),
(49,129,o),
(53,180,c),
(58,257,o),
(57,332,o),
(59,409,c),
(61,474,o),
(59,539,o),
(59,604,c),
(59,620,o),
(65,626,o),
(80,625,c),
(188,622,o),
(295,618,o),
(402,617,c),
(454,616,o),
(504,617,o),
(555,620,c),
(577,621,o),
(585,613,o),
(584,592,c),
(582,529,o),
(581,465,o),
(580,401,c),
(579,281,o),
(577,162,o),
(575,42,c),
(575,-1,o),
(560,-10,o),
(507,-4,c),
(503,-2,o),
(499,-1,o),
(495,-1,c),
(451,-5,o),
(451,-5,o),
(452,41,c),
(454,110,o),
(456,180,o),
(459,249,c),
(460,264,o),
(454,270,o),
(439,270,c),
(405,268,o),
(372,270,o),
(338,270,c),
(338,270,o),
(338,271,o),
(338,272,c)
);
}
);
width = 634;
}
);
unicode = 1495;
},
{
glyphname = "tet-hb";
lastChange = "2022-06-16 11:05:20 +0000";
layers = (
{
layerId = m01;
shapes = (
{
closed = 1;
nodes = (
(377,116,o),
(425,116,o),
(473,116,c),
(491,115,o),
(498,124,o),
(496,140,c),
(490,227,o),
(499,314,o),
(496,401,c),
(496,407,o),
(495,410,o),
(494,416,c),
(490,413,o),
(485,412,o),
(482,409,c),
(451,384,o),
(420,360,o),
(388,335,c),
(381,330,o),
(373,322,o),
(362,327,c),
(351,334,o),
(357,344,o),
(357,352,c),
(357,379,o),
(356,407,o),
(356,434,c),
(356,446,o),
(360,456,o),
(370,464,c),
(425,500,o),
(474,542,o),
(525,582,c),
(545,597,o),
(565,607,o),
(582,624,c),
(589,632,o),
(599,637,o),
(610,632,c),
(621,625,o),
(620,615,o),
(619,606,c),
(606,504,o),
(613,403,o),
(613,302,c),
(612,217,o),
(612,131,o),
(610,46,c),
(610,-3,o),
(610,-2,o),
(560,-2,c),
(482,-2,o),
(405,-3,o),
(329,1,c),
(287,2,o),
(244,5,o),
(201,5,c),
(183,5,o),
(171,19,o),
(161,32,c),
(93,114,o),
(49,205,o),
(50,313,c),
(51,418,o),
(87,512,o),
(159,590,c),
(178,608,o),
(196,624,o),
(214,641,c),
(227,652,o),
(239,652,o),
(253,642,c),
(271,626,o),
(292,612,o),
(312,597,c),
(334,580,o),
(332,567,o),
(309,552,c),
(239,509,o),
(195,451,o),
(182,366,c),
(172,312,o),
(175,263,o),
(192,210,c),
(214,142,o),
(258,111,o),
(309,116,c)
);
}
);
width = 670;
}
);
unicode = 1496;
},
{
glyphname = "yod-hb";
lastChange = "2022-06-16 11:05:20 +0000";
layers = (
{
layerId = m01;
shapes = (
{
closed = 1;
nodes = (
(105,618,o),
(131,611,o),
(158,616,c),
(172,619,o),
(180,608,o),
(179,594,c),
(172,546,o),
(175,497,o),
(178,448,c),
(181,382,o),
(142,317,o),
(79,288,c),
(64,282,o),
(49,292,o),
(50,309,c),
(55,402,o),
(54,493,o),
(51,585,c),
(50,606,o),
(54,619,o),
(81,615,c)
);
}
);
width = 229;
}
);
unicode = 1497;
},
{
glyphname = "kaf-hb";
lastChange = "2022-06-16 11:05:20 +0000";
layers = (
{
background = {
shapes = (
{
closed = 1;
nodes = (
(199,-14,o),
(233,-6,o),
(265,3,cs),
(334,23,o),
(389,63,o),
(423,129,cs),
(451,183,o),
(460,238,o),
(441,297,cs),
(431,330,o),
(417,360,o),
(395,387,cs),
(346,447,o),
(282,479,o),
(204,482,cs),
(197,482,o),
(191,483,o),
(184,482,cs),
(150,476,o),
(145,485,o),
(135,445,cs),
(131,427,o),
(129,408,o),
(117,391,cs),
(109,381,o),
(119,373,o),
(131,374,cs),
(138,375,o),
(144,378,o),
(150,380,cs),
(203,395,o),
(250,388,o),
(294,353,cs),
(359,302,o),
(364,203,o),
(323,151,cs),
(273,88,o),
(194,69,o),
(125,111,cs),
(119,114,o),
(114,118,o),
(107,113,cs),
(102,108,o),
(102,102,o),
(104,96,cs),
(106,85,o),
(109,75,o),
(108,63,cs),
(102,20,o),
(114,5,o),
(155,0,cs),
(159,0,o),
(162,-1,o),
(165,-2,cs)
);
}
);
};
layerId = m01;
shapes = (
{
closed = 1;
nodes = (
(284,626,o),
(367,584,o),
(431,506,cs),
(459,471,o),
(477,432,o),
(490,389,cs),
(515,312,o),
(503,241,o),
(467,170,cs),
(423,84,o),
(351,32,o),
(261,6,cs),
(220,-5,o),
(176,-16,o),
(131,0,cs),
(127,1,o),
(124,2,o),
(118,2,cs),
(65,9,o),
(49,28,o),
(57,84,cs),
(58,100,o),
(55,113,o),
(52,127,cs),
(49,135,o),
(49,143,o),
(56,149,cs),
(65,156,o),
(71,151,o),
(79,147,cs),
(169,92,o),
(272,117,o),
(337,199,cs),
(390,267,o),
(384,395,o),
(299,462,cs),
(242,507,o),
(181,516,o),
(112,497,cs),
(104,494,o),
(96,490,o),
(87,489,cs),
(71,488,o),
(58,498,o),
(69,511,cs),
(84,533,o),
(87,558,o),
(92,581,cs),
(105,633,o),
(112,622,o),
(156,630,cs),
(165,631,o),
(173,630,o),
(182,630,cs)
);
}
);
width = 553;
}
);
unicode = 1499;
},
{
glyphname = "vav-hb";
lastChange = "2022-06-16 11:05:20 +0000";
layers = (
{
layerId = m01;
shapes = (
{
closed = 1;
nodes = (
(50,515,o),
(50,574,o),
(50,631,c),
(50,653,o),
(60,660,o),
(81,657,c),
(102,655,o),
(124,653,o),
(146,653,c),
(163,653,o),
(167,644,o),
(168,630,c),
(173,573,o),
(169,515,o),
(171,458,c),
(173,401,o),
(176,342,o),
(172,285,c),
(168,250,o),
(171,216,o),
(172,184,c),
(176,116,o),
(137,42,o),
(78,12,c),
(60,3,o),
(50,9,o),
(50,29,c),
(50,85,o),
(51,142,o),
(52,199,c),
(52,251,o),
(51,305,o),
(51,357,c),
(51,391,o),
(51,424,o),
(51,458,c),
(51,458,o),
(50,458,o),
(50,458,c)
);
}
);
width = 224;
}
);
unicode = 1493;
},
{
glyphname = "lamed-hb";
lastChange = "2022-06-16 11:05:20 +0000";
layers = (
{
layerId = m01;
shapes = (
{
closed = 1;
nodes = (
(356,382,o),
(392,389,o),
(425,372,c),
(474,351,o),
(511,321,o),
(527,269,c),
(546,205,o),
(541,143,o),
(507,84,c),
(483,39,o),
(437,19,o),
(386,10,c),
(295,-4,o),
(204,1,o),
(112,1,c),
(96,1,o),
(85,6,o),
(79,22,c),
(72,48,o),
(60,73,o),
(52,97,c),
(47,113,o),
(49,126,o),
(69,125,c),
(121,125,o),
(172,122,o),
(222,124,c),
(263,124,o),
(303,120,o),
(343,125,c),
(403,131,o),
(427,160,o),
(416,220,c),
(411,246,o),
(376,267,o),
(341,265,c),
(272,265,o),
(203,267,o),
(134,268,c),
(121,268,o),
(113,274,o),
(113,293,c),
(113,351,o),
(112,411,o),
(114,471,c),
(116,516,o),
(107,561,o),
(112,606,c),
(113,626,o),
(126,633,o),
(142,631,c),
(168,624,o),
(194,628,o),
(220,627,c),
(238,626,o),
(246,619,o),
(243,600,c),
(238,532,o),
(241,464,o),
(241,398,c),
(241,388,o),
(246,385,o),
(255,385,c),
(277,385,o),
(299,385,o),
(312,385,c)
);
}
);
width = 588;
}
);
unicode = 1500;
},
{
glyphname = "mem-hb";
lastChange = "2022-06-16 11:05:20 +0000";
layers = (
{
layerId = m01;
shapes = (
{
closed = 1;
nodes = (
(115,625,o),
(125,625,o),
(134,625,c),
(157,627,o),
(170,620,o),
(167,594,c),
(167,590,o),
(168,584,o),
(170,582,c),
(176,579,o),
(177,585,o),
(180,588,c),
(216,616,o),
(259,631,o),
(304,637,c),
(366,647,o),
(424,636,o),
(479,607,c),
(544,572,o),
(582,516,o),
(597,446,c),
(622,339,o),
(593,240,o),
(554,144,c),
(535,95,o),
(504,52,o),
(478,6,c),
(470,-7,o),
(459,-10,o),
(446,-6,c),
(419,1,o),
(390,7,o),
(363,15,c),
(346,20,o),
(344,32,o),
(354,45,c),
(425,126,o),
(463,222,o),
(475,329,c),
(481,372,o),
(484,417,o),
(458,458,c),
(424,510,o),
(375,520,o),
(317,511,c),
(262,503,o),
(216,480,o),
(181,434,c),
(170,420,o),
(167,406,o),
(168,389,c),
(173,327,o),
(168,268,o),
(170,208,c),
(173,156,o),
(164,104,o),
(174,52,c),
(177,41,o),
(173,27,o),
(170,15,c),
(169,6,o),
(160,0,o),
(152,2,c),
(128,10,o),
(104,0,o),
(81,0,c),
(61,0,o),
(52,7,o),
(52,30,c),
(53,137,o),
(53,245,o),
(53,353,c),
(53,422,o),
(53,490,o),
(53,558,c),
(53,572,o),
(52,585,o),
(51,598,c),
(48,619,o),
(53,631,o),
(77,627,c),
(86,625,o),
(96,627,o),
(105,627,c),
(105,627,o),
(105,625,o),
(105,625,c)
);
}
);
width = 656;
}
);
unicode = 1502;
},
{
glyphname = "nun-hb";
lastChange = "2022-06-16 11:05:20 +0000";
layers = (
{
layerId = m01;
shapes = (
{
closed = 1;
nodes = (
(368,382,o),
(369,444,o),
(368,508,c),
(368,546,o),
(366,585,o),
(366,624,c),
(366,635,o),
(373,642,o),
(386,642,c),
(416,642,o),
(446,642,o),
(476,642,c),
(491,642,o),
(498,634,o),
(496,617,c),
(495,572,o),
(495,525,o),
(495,479,c),
(494,379,o),
(491,279,o),
(493,179,c),
(494,124,o),
(490,69,o),
(498,15,c),
(498,12,o),
(498,10,o),
(496,7,c),
(494,-3,o),
(498,-20,o),
(483,-23,c),
(468,-26,o),
(463,-10,o),
(456,0,c),
(422,54,o),
(391,110,o),
(346,155,c),
(325,177,o),
(303,196,o),
(277,211,c),
(244,231,o),
(209,226,o),
(188,201,c),
(169,177,o),
(173,132,o),
(193,106,c),
(209,89,o),
(225,72,o),
(243,59,c),
(257,50,o),
(256,40,o),
(239,34,c),
(210,25,o),
(182,16,o),
(153,8,c),
(143,4,o),
(134,7,o),
(126,15,c),
(52,88,o),
(19,179,o),
(88,270,c),
(149,349,o),
(255,374,o),
(347,304,c),
(353,298,o),
(366,288,o),
(369,291,c),
(377,297,o),
(369,309,o),
(368,319,c)
);
}
);
width = 548;
}
);
unicode = 1504;
},
{
glyphname = "samekh-hb";
lastChange = "2022-06-16 11:05:20 +0000";
layers = (
{
layerId = m01;
shapes = (
{
closed = 1;
nodes = (
(456,436,o),
(456,436,o),
(456,436,c),
(456,452,o),
(456,468,o),
(456,483,c),
(456,496,o),
(451,499,o),
(438,499,c),
(382,500,o),
(327,495,o),
(271,501,c),
(251,503,o),
(227,507,o),
(217,485,c),
(184,417,o),
(161,348,o),
(183,271,c),
(195,228,o),
(214,187,o),
(249,158,c),
(304,115,o),
(370,112,o),
(435,112,c),
(448,112,o),
(455,119,o),
(455,133,c),
(455,162,o),
(456,192,o),
(456,220,c),
(456,292,o),
(456,365,o),
(456,436,c)
);
},
{
closed = 1;
nodes = (
(418,-3,o),
(368,-3,o),
(316,6,c),
(275,12,o),
(239,27,o),
(204,47,c),
(110,102,o),
(65,189,o),
(53,293,c),
(46,349,o),
(54,405,o),
(72,460,c),
(89,512,o),
(111,560,o),
(134,609,c),
(139,620,o),
(147,624,o),
(158,624,c),
(228,624,o),
(297,620,o),
(366,620,c),
(415,620,o),
(463,616,o),
(511,621,c),
(529,624,o),
(550,620,o),
(569,620,c),
(581,620,o),
(584,611,o),
(584,602,c),
(582,530,o),
(580,457,o),
(578,386,c),
(577,313,o),
(578,240,o),
(577,167,c),
(577,118,o),
(573,70,o),
(572,20,c),
(572,3,o),
(563,-2,o),
(549,-5,c),
(523,-9,o),
(496,-5,o),
(470,-5,c)
);
}
);
width = 634;
}
);
unicode = 1505;
},
{
glyphname = "ayin-hb";
lastChange = "2022-06-16 11:05:20 +0000";
layers = (
{
layerId = m01;
shapes = (
{
closed = 1;
nodes = (
(265,259,o),
(260,271,o),
(253,281,c),
(213,344,o),
(174,407,o),
(132,469,c),
(106,505,o),
(85,544,o),
(58,581,c),
(53,588,o),
(46,597,o),
(53,608,c),
(58,617,o),
(67,621,o),
(79,622,c),
(104,625,o),
(128,625,o),
(153,634,c),
(166,639,o),
(176,634,o),
(183,622,c),
(223,543,o),
(282,474,o),
(322,394,c),
(333,376,o),
(342,372,o),
(353,394,c),
(387,463,o),
(424,531,o),
(460,599,c),
(468,613,o),
(473,634,o),
(495,635,c),
(508,635,o),
(520,631,o),
(533,629,c),
(552,626,o),
(572,621,o),
(591,618,c),
(616,616,o),
(611,601,o),
(605,587,c),
(594,568,o),
(581,549,o),
(571,530,c),
(538,469,o),
(506,407,o),
(472,346,c),
(431,272,o),
(390,199,o),
(352,125,c),
(331,85,o),
(303,48,o),
(287,5,c),
(279,-14,o),
(266,-18,o),
(245,-10,c),
(223,-1,o),
(199,5,o),
(174,11,c),
(149,15,o),
(149,26,o),
(160,45,c),
(193,104,o),
(227,164,o),
(260,224,c),
(265,232,o),
(268,240,o),
(271,249,c)
);
}
);
width = 660;
}
);
unicode = 1506;
},
{
glyphname = "pe-hb";
lastChange = "2022-06-16 11:05:20 +0000";
layers = (
{
layerId = m01;
shapes = (
{
closed = 1;
nodes = (
(403,268,o),
(401,369,o),
(400,467,c),
(400,510,o),
(401,512,o),
(358,510,c),
(318,510,o),
(278,509,o),
(237,504,c),
(214,501,o),
(196,484,o),
(189,461,c),
(183,436,o),
(185,411,o),
(210,395,c),
(241,374,o),
(278,370,o),
(314,371,c),
(334,371,o),
(341,369,o),
(330,346,c),
(318,327,o),
(310,305,o),
(302,284,c),
(295,266,o),
(280,258,o),
(262,261,c),
(218,268,o),
(174,270,o),
(135,294,c),
(95,320,o),
(69,358,o),
(56,405,c),
(40,466,o),
(60,517,o),
(97,565,c),
(123,600,o),
(162,617,o),
(198,624,c),
(237,631,o),
(280,629,o),
(322,630,c),
(379,631,o),
(438,622,o),
(496,630,c),
(510,633,o),
(524,625,o),
(524,605,c),
(521,542,o),
(518,479,o),
(520,415,c),
(522,328,o),
(521,241,o),
(521,154,c),
(521,108,o),
(518,64,o),
(518,20,c),
(518,2,o),
(509,-5,o),
(492,-2,c),
(419,6,o),
(345,3,o),
(272,2,c),
(224,0,o),
(175,3,o),
(127,3,c),
(119,3,o),
(112,7,o),
(112,13,c),
(107,43,o),
(89,69,o),
(88,101,c),
(86,116,o),
(95,121,o),
(108,121,c),
(163,120,o),
(216,117,o),
(270,116,c),
(308,116,o),
(345,116,o),
(383,116,c),
(395,116,o),
(400,120,o),
(399,132,c),
(399,145,o),
(399,158,o),
(399,170,c)
);
}
);
width = 574;
}
);
unicode = 1508;
},
{
glyphname = "tsadi-hb";
lastChange = "2022-06-16 11:05:20 +0000";
layers = (
{
layerId = m01;
shapes = (
{
closed = 1;
nodes = (
(238,522,o),
(236,475,o),
(231,428,c),
(231,424,o),
(232,420,o),
(232,415,c),
(236,417,o),
(240,419,o),
(242,421,c),
(277,463,o),
(314,503,o),
(350,545,c),
(370,567,o),
(389,590,o),
(410,613,c),
(424,628,o),
(445,628,o),
(463,627,c),
(488,627,o),
(514,626,o),
(539,626,c),
(547,624,o),
(556,627,o),
(560,616,c),
(564,607,o),
(561,598,o),
(555,592,c),
(521,555,o),
(488,520,o),
(454,484,c),
(428,455,o),
(402,428,o),
(378,398,c),
(368,388,o),
(381,390,o),
(385,390,c),
(430,388,o),
(467,372,o),
(501,339,c),
(548,294,o),
(566,240,o),
(561,175,c),
(555,95,o),
(492,34,o),
(417,13,c),
(353,-5,o),
(288,0,o),
(223,0,c),
(182,0,o),
(143,-8,o),
(103,0,c),
(85,2,o),
(74,12,o),
(69,27,c),
(63,48,o),
(56,69,o),
(51,91,c),
(46,112,o),
(60,131,o),
(81,126,c),
(134,112,o),
(189,121,o),
(242,118,c),
(285,116,o),
(328,117,o),
(371,125,c),
(415,131,o),
(431,155,o),
(430,207,c),
(430,255,o),
(398,270,o),
(365,273,c),
(301,277,o),
(236,281,o),
(172,276,c),
(166,276,o),
(159,276,o),
(153,274,c),
(128,269,o),
(119,281,o),
(119,303,c),
(117,376,o),
(119,447,o),
(117,520,c),
(117,548,o),
(117,575,o),
(113,601,c),
(111,626,o),
(123,632,o),
(141,629,c),
(164,628,o),
(185,627,o),
(207,633,c),
(221,636,o),
(232,629,o),
(233,614,c),
(234,598,o),
(236,584,o),
(236,568,c)
);
}
);
width = 612;
}
);
unicode = 1510;
},
{
glyphname = "qof-hb";
lastChange = "2022-06-16 11:05:20 +0000";
layers = (
{
layerId = m01;
shapes = (
{
closed = 1;
nodes = (
(184,501,o),
(134,501,o),
(83,501,c),
(56,501,o),
(45,512,o),
(53,538,c),
(61,562,o),
(61,585,o),
(65,610,c),
(67,627,o),
(78,633,o),
(95,632,c),
(156,625,o),
(218,631,o),
(281,627,c),
(307,625,o),
(337,628,o),
(360,616,c),
(385,605,o),
(407,586,o),
(429,567,c),
(464,536,o),
(480,494,o),
(491,452,c),
(504,412,o),
(491,372,o),
(476,333,c),
(442,254,o),
(379,217,o),
(298,207,c),
(269,202,o),
(239,203,o),
(209,204,c),
(191,205,o),
(197,189,o),
(197,181,c),
(196,129,o),
(197,75,o),
(197,23,c),
(197,10,o),
(192,4,o),
(178,3,c),
(149,-3,o),
(119,0,o),
(91,4,c),
(75,5,o),
(70,13,o),
(70,29,c),
(73,100,o),
(78,172,o),
(73,243,c),
(71,263,o),
(71,283,o),
(71,304,c),
(71,320,o),
(79,326,o),
(93,324,c),
(149,315,o),
(207,315,o),
(262,321,c),
(342,330,o),
(383,377,o),
(355,451,c),
(342,486,o),
(309,498,o),
(273,501,c),
(261,501,o),
(248,501,o),
(235,501,c),
(235,501,o),
(235,501,o),
(235,501,c)
);
}
);
width = 546;
}
);
unicode = 1511;
},
{
glyphname = "resh-hb";
lastChange = "2022-06-16 11:05:20 +0000";
layers = (
{
layerId = m01;
shapes = (
{
closed = 1;
nodes = (
(388,646,o),
(466,602,o),
(522,520,c),
(543,491,o),
(552,453,o),
(553,416,c),
(553,379,o),
(558,343,o),
(560,308,c),
(561,275,o),
(560,243,o),
(560,212,c),
(560,204,o),
(560,196,o),
(560,188,c),
(562,164,o),
(565,139,o),
(558,114,c),
(555,100,o),
(555,86,o),
(566,73,c),
(575,63,o),
(560,60,o),
(560,50,c),
(556,0,o),
(553,0,o),
(501,2,c),
(484,4,o),
(467,1,o),
(452,1,c),
(432,1,o),
(423,11,o),
(425,30,c),
(428,101,o),
(430,173,o),
(430,244,c),
(430,296,o),
(428,347,o),
(425,398,c),
(422,446,o),
(400,486,o),
(352,504,c),
(304,524,o),
(257,525,o),
(218,486,c),
(196,463,o),
(183,434,o),
(181,400,c),
(181,368,o),
(175,365,o),
(145,377,c),
(124,385,o),
(101,388,o),
(79,392,c),
(61,396,o),
(49,405,o),
(50,426,c),
(62,543,o),
(168,641,o),
(315,643,c)
);
}
);
width = 619;
}
);
unicode = 1512;
},
{
glyphname = "shin-hb";
lastChange = "2022-06-16 11:05:20 +0000";
layers = (
{
layerId = m01;
shapes = (
{
closed = 1;
nodes = (
(191,163,o),
(191,157,o),
(189,152,c),
(187,128,o),
(199,123,o),
(218,124,c),
(251,128,o),
(283,129,o),
(316,133,c),
(382,142,o),
(456,201,o),
(473,275,c),
(487,341,o),
(483,405,o),
(468,470,c),
(459,510,o),
(438,547,o),
(413,581,c),
(408,588,o),
(403,587,o),
(397,579,c),
(369,535,o),
(344,488,o),
(314,444,c),
(287,405,o),
(265,362,o),
(240,322,c),
(212,275,o),
(180,228,o),
(191,170,c)
);
},
{
closed = 1;
nodes = (
(53,556,o),
(45,582,o),
(53,609,c),
(58,630,o),
(70,642,o),
(92,635,c),
(115,629,o),
(137,630,o),
(161,634,c),
(183,638,o),
(193,625,o),
(192,603,c),
(189,555,o),
(189,508,o),
(189,461,c),
(189,457,o),
(191,453,o),
(193,453,c),
(199,451,o),
(200,456,o),
(201,460,c),
(223,500,o),
(245,540,o),
(267,581,c),
(275,594,o),
(283,608,o),
(292,621,c),
(295,623,o),
(300,627,o),
(304,627,c),
(374,629,o),
(444,631,o),
(513,623,c),
(543,621,o),
(544,592,o),
(555,574,c),
(586,517,o),
(603,456,o),
(609,392,c),
(616,318,o),
(604,248,o),
(564,181,c),
(535,136,o),
(507,90,o),
(461,59,c),
(420,32,o),
(373,10,o),
(326,6,c),
(245,-2,o),
(165,3,o),
(84,3,c),
(76,3,o),
(67,6,o),
(66,15,c),
(62,40,o),
(52,67,o),
(57,90,c),
(63,122,o),
(61,150,o),
(61,180,c),
(62,224,o),
(61,269,o),
(59,313,c),
(58,354,o),
(58,396,o),
(56,436,c),
(53,467,o),
(59,497,o),
(56,518,c)
);
}
);
width = 661;
}
);
unicode = 1513;
},
{
glyphname = "tav-hb";
lastChange = "2022-06-16 11:05:20 +0000";
layers = (
{
layerId = m01;
shapes = (
{
closed = 1;
nodes = (
(462,1,o),
(452,-12,o),
(454,69,c),
(456,135,o),
(457,202,o),
(457,268,c),
(457,342,o),
(454,416,o),
(458,489,c),
(458,501,o),
(453,506,o),
(443,506,c),
(382,504,o),
(323,493,o),
(270,460,c),
(193,413,o),
(175,342,o),
(179,259,c),
(183,187,o),
(209,125,o),
(240,62,c),
(241,60,o),
(243,57,o),
(245,55,c),
(271,26,o),
(269,20,o),
(231,10,c),
(209,5,o),
(187,0,o),
(165,-6,c),
(152,-12,o),
(141,-8,o),
(135,4,c),
(88,83,o),
(58,166,o),
(51,260,c),
(50,293,o),
(50,325,o),
(50,358,c),
(49,372,o),
(51,384,o),
(63,393,c),
(67,395,o),
(71,400,o),
(71,404,c),
(79,450,o),
(113,478,o),
(139,511,c),
(162,541,o),
(192,560,o),
(220,582,c),
(233,593,o),
(252,598,o),
(267,603,c),
(304,618,o),
(341,624,o),
(380,629,c),
(404,633,o),
(427,636,o),
(448,633,c),
(491,627,o),
(534,628,o),
(578,627,c),
(587,627,o),
(595,619,o),
(592,610,c),
(582,549,o),
(594,489,o),
(595,429,c),
(595,384,o),
(584,339,o),
(587,294,c),
(591,228,o),
(588,160,o),
(588,94,c),
(588,74,o),
(588,53,o),
(590,34,c),
(592,9,o),
(582,-3,o),
(557,-1,c),
(547,-1,o),
(535,-1,o),
(525,-1,c)
);
}
);
width = 645;
}
);
unicode = 1514;
},
{
glyphname = "alef-hb.case";
lastChange = "2022-06-16 13:53:16 +0000";
layers = (
{
layerId = m01;
shapes = (
{
closed = 1;
nodes = (
(181,271,o),
(135,245,o),
(87,229,c),
(89,263,o),
(90,291,o),
(92,320,c),
(92,325,o),
(103,332,o),
(109,333,c),
(199,350,o),
(289,346,o),
(339,243,c),
(368,241,o),
(393,184,o),
(380,151,c),
(368,150,o),
(356,147,o),
(342,145,c),
(342,106,o),
(341,67,o),
(342,28,c),
(343,9,o),
(337,2,o),
(319,0,c),
(243,-5,o),
(238,3,o),
(248,103,c),
(250,116,o),
(248,128,o),
(248,145,c),
(209,137,o),
(167,143,o),
(151,106,c),
(134,69,o),
(170,42,o),
(189,9,c),
(151,-4,o),
(113,-5,o),
(87,9,c),
(61,24,o),
(47,60,o),
(50,94,c),
(57,173,o),
(98,210,o),
(190,226,c),
(202,228,o),
(215,230,o),
(233,233,c)
);
}
);
width = 434;
}
);
},
{
glyphname = "bet-hb.case";
lastChange = "2022-06-16 11:05:20 +0000";
layers = (
{
layerId = m01;
shapes = (
{
closed = 1;
nodes = (
(369,326,o),
(356,312,o),
(349,300,c),
(305,236,o),
(312,171,o),
(338,105,c),
(339,100,o),
(340,96,o),
(342,92,c),
(360,-8,o),
(360,-7,o),
(260,0,c),
(205,3,o),
(150,1,o),
(96,1,c),
(82,1,o),
(67,2,o),
(61,19,c),
(52,44,o),
(45,70,o),
(54,94,c),
(57,104,o),
(66,102,o),
(74,101,c),
(124,98,o),
(175,96,o),
(227,93,c),
(230,93,o),
(234,96,o),
(239,97,c),
(231,144,o),
(208,188,o),
(226,237,c),
(182,247,o),
(141,244,o),
(101,241,c),
(69,240,o),
(53,245,o),
(61,286,c),
(69,341,o),
(98,347,o),
(145,343,c),
(214,338,o),
(282,335,o),
(351,344,c)
);
}
);
width = 410;
}
);
},
{
glyphname = "gimel-hb.case";
lastChange = "2022-06-16 11:05:51 +0000";
layers = (
{
layerId = m01;
shapes = (
{
closed = 1;
nodes = (
(295,268,o),
(295,295,o),
(293,323,c),
(293,342,o),
(300,351,o),
(319,349,c),
(323,347,o),
(327,346,o),
(331,347,c),
(392,362,o),
(404,332,o),
(401,276,c),
(396,195,o),
(395,113,o),
(403,33,c),
(404,20,o),
(397,8,o),
(382,7,c),
(360,4,o),
(339,3,o),
(317,3,c),
(291,3,o),
(296,25,o),
(295,39,c),
(293,52,o),
(296,65,o),
(296,78,c),
(296,116,o),
(286,147,o),
(241,150,c),
(197,154,o),
(161,121,o),
(161,81,c),
(160,5,o),
(193,-54,o),
(251,-103,c),
(269,-118,o),
(270,-131,o),
(251,-145,c),
(235,-157,o),
(221,-171,o),
(205,-184,c),
(195,-194,o),
(183,-194,o),
(175,-184,c),
(115,-109,o),
(53,-38,o),
(50,66,c),
(48,194,o),
(158,274,o),
(295,239,c)
);
}
);
width = 453;
}
);
},
{
glyphname = "dalet-hb.case";
lastChange = "2022-06-16 11:05:20 +0000";
layers = (
{
layerId = m01;
shapes = (
{
closed = 1;
nodes = (
(178,234,o),
(177,228,o),
(180,223,c),
(193,193,o),
(186,177,o),
(151,169,c),
(90,155,o),
(77,163,o),
(72,228,c),
(70,255,o),
(63,283,o),
(53,307,c),
(43,340,o),
(57,346,o),
(85,346,c),
(125,344,o),
(165,342,o),
(206,341,c),
(216,341,o),
(226,344,o),
(238,346,c),
(261,336,o),
(286,344,o),
(311,342,c),
(333,342,o),
(343,337,o),
(343,311,c),
(343,220,o),
(347,129,o),
(347,38,c),
(347,15,o),
(342,-5,o),
(311,-1,c),
(286,3,o),
(259,-6,o),
(237,15,c),
(237,238,l),
(217,240,o),
(198,241,o),
(177,242,c)
);
}
);
width = 397;
}
);
},
{
glyphname = "he-hb.case";
lastChange = "2022-06-16 11:05:20 +0000";
layers = (
{
layerId = m01;
shapes = (
{
closed = 1;
nodes = (
(215,121,o),
(189,63,o),
(160,6,c),
(150,-14,o),
(129,-5,o),
(113,-1,c),
(38,14,o),
(38,14,o),
(72,82,c),
(85,110,o),
(99,134,o),
(113,160,c),
(51,241,o),
(46,264,o),
(95,315,c),
(142,365,o),
(208,340,o),
(269,345,c),
(269,487,l),
(269,623,l),
(307,621,o),
(338,619,o),
(372,617,c),
(372,3,l),
(340,3,o),
(308,1,o),
(277,3,c),
(267,4,o),
(268,19,o),
(268,28,c),
(268,92,o),
(269,155,o),
(269,218,c),
(269,227,o),
(267,236,o),
(266,248,c),
(237,245,o),
(197,262,o),
(185,238,c),
(160,186,o),
(230,211,o),
(241,179,c)
);
}
);
width = 422;
}
);
},
{
glyphname = "vav-hb.case";
lastChange = "2022-06-16 11:05:20 +0000";
layers = (
{
layerId = m01;
shapes = (
{
closed = 1;
nodes = (
(148,245,o),
(139,231,o),
(132,213,c),
(126,194,o),
(115,190,o),
(98,200,c),
(44,232,o),
(40,241,o),
(66,294,c),
(63,300,o),
(61,305,o),
(58,310,c),
(67,322,o),
(67,322,o),
(88,317,c),
(144,356,o),
(200,350,o),
(253,309,c),
(286,283,o),
(280,244,o),
(283,209,c),
(287,149,o),
(279,88,o),
(290,28,c),
(291,15,o),
(284,5,o),
(270,2,c),
(252,1,o),
(234,-2,o),
(215,-2,c),
(192,-3,o),
(180,6,o),
(182,33,c),
(184,86,o),
(183,141,o),
(182,196,c),
(182,210,o),
(178,223,o),
(176,236,c)
);
}
);
width = 340;
}
);
},
{
glyphname = "zayin-hb.case";
lastChange = "2022-06-16 11:05:20 +0000";
layers = (
{
layerId = m01;
shapes = (
{
closed = 1;
nodes = (
(244,250,o),
(236,248,o),
(228,249,c),
(209,250,o),
(189,257,o),
(178,233,c),
(166,209,o),
(183,189,o),
(194,172,c),
(239,107,o),
(297,51,o),
(323,-24,c),
(334,-71,o),
(319,-109,o),
(291,-144,c),
(254,-189,o),
(202,-196,o),
(149,-200,c),
(49,-206,o),
(76,-202,o),
(51,-116,c),
(46,-102,o),
(57,-92,o),
(74,-97,c),
(103,-107,o),
(135,-101,o),
(166,-97,c),
(224,-90,o),
(230,-58,o),
(191,1,c),
(149,64,o),
(90,115,o),
(67,192,c),
(51,241,o),
(62,283,o),
(101,318,c),
(137,350,o),
(181,357,o),
(227,350,c),
(248,346,o),
(262,281,o),
(250,250,c)
);
}
);
width = 377;
}
);
},
{
glyphname = "het-hb.case";
lastChange = "2022-06-16 11:05:20 +0000";
layers = (
{
layerId = m01;
shapes = (
{
closed = 1;
nodes = (
(348,-3,o),
(321,-1,o),
(292,4,c),
(280,5,o),
(280,17,o),
(280,27,c),
(280,96,o),
(280,166,o),
(280,238,c),
(179,238,l),
(191,178,o),
(180,121,o),
(165,62,c),
(158,39,o),
(145,19,o),
(133,-1,c),
(128,-12,o),
(118,-9,o),
(107,-5,c),
(42,27,o),
(44,26,o),
(70,92,c),
(98,169,o),
(90,243,o),
(54,315,c),
(46,331,o),
(51,342,o),
(70,342,c),
(167,342,o),
(263,343,o),
(361,341,c),
(404,341,o),
(380,308,o),
(380,290,c),
(383,218,o),
(382,146,o),
(384,74,c),
(386,51,o),
(384,30,o),
(376,5,c)
);
}
);
width = 437;
}
);
},
{
glyphname = "tet-hb.case";
lastChange = "2022-06-16 11:05:20 +0000";
layers = (
{
layerId = m01;
shapes = (
{
closed = 1;
nodes = (
(231,269,o),
(216,265,o),
(203,260,c),
(164,241,o),
(150,209,o),
(156,170,c),
(163,119,o),
(206,107,o),
(246,102,c),
(276,98,o),
(307,97,o),
(340,109,c),
(339,118,o),
(339,127,o),
(337,140,c),
(315,140,o),
(294,140,o),
(275,139,c),
(247,139,o),
(240,146,o),
(247,176,c),
(259,219,o),
(277,243,o),
(327,234,c),
(359,228,o),
(393,235,o),
(427,235,c),
(440,235,o),
(447,226,o),
(447,213,c),
(445,152,o),
(445,91,o),
(445,29,c),
(445,9,o),
(436,-2,o),
(414,-1,c),
(332,6,o),
(249,-8,o),
(168,18,c),
(91,44,o),
(41,126,o),
(51,206,c),
(61,299,o),
(106,348,o),
(198,372,c),
(211,375,o),
(221,373,o),
(225,359,c),
(232,331,o),
(240,304,o),
(247,274,c)
);
}
);
width = 497;
}
);
},
{
glyphname = "yod-hb.case";
lastChange = "2022-06-16 11:05:33 +0000";
layers = (
{
layerId = m01;
shapes = (
{
closed = 1;
nodes = (
(62,298,o),
(58,344,o),
(91,354,c),
(149,374,o),
(223,334,o),
(234,288,c),
(240,256,o),
(242,223,o),
(245,190,c),
(248,159,o),
(238,146,o),
(203,142,c),
(161,138,o),
(151,149,o),
(154,189,c),
(161,253,o),
(141,269,o),
(76,259,c),
(70,259,o),
(62,261,o),
(50,262,c)
);
}
);
width = 296;
}
);
},
{
glyphname = "kaf-hb.case";
lastChange = "2022-06-16 11:05:20 +0000";
layers = (
{
background = {
shapes = (
{
closed = 1;
nodes = (
(129,-14,o),
(163,-6,o),
(195,3,cs),
(264,23,o),
(319,63,o),
(353,129,cs),
(381,183,o),
(390,238,o),
(371,297,cs),
(361,330,o),
(347,360,o),
(325,387,cs),
(276,447,o),
(212,479,o),
(134,482,cs),
(127,482,o),
(121,483,o),
(114,482,cs),
(80,476,o),
(75,485,o),
(65,445,cs),
(61,427,o),
(59,408,o),
(47,391,cs),
(39,381,o),
(49,373,o),
(61,374,cs),
(68,375,o),
(74,378,o),
(80,380,cs),
(133,395,o),
(180,388,o),
(224,353,cs),
(289,302,o),
(294,203,o),
(253,151,cs),
(203,88,o),
(124,69,o),
(55,111,cs),
(49,114,o),
(44,118,o),
(37,113,cs),
(32,108,o),
(32,102,o),
(34,96,cs),
(36,85,o),
(39,75,o),
(38,63,cs),
(32,20,o),
(44,5,o),
(85,0,cs),
(89,0,o),
(92,-1,o),
(95,-2,cs)
);
}
);
};
layerId = m01;
shapes = (
{
closed = 1;
nodes = (
(269,252,o),
(204,286,o),
(134,259,c),
(85,241,o),
(89,293,o),
(71,312,c),
(56,328,o),
(70,342,o),
(88,352,c),
(212,420,o),
(373,333,o),
(377,194,c),
(378,120,o),
(352,55,o),
(283,18,c),
(203,-25,o),
(119,-14,o),
(57,40,c),
(39,56,o),
(59,68,o),
(63,82,c),
(78,121,o),
(98,133,o),
(139,107,c),
(193,71,o),
(269,118,o),
(269,183,c)
);
}
);
width = 427;
}
);
},
{
glyphname = "lamed-hb.case";
lastChange = "2022-06-16 11:05:20 +0000";
layers = (
{
layerId = m01;
shapes = (
{
closed = 1;
nodes = (
(97,110,o),
(128,87,o),
(168,103,c),
(196,113,o),
(213,134,o),
(219,164,c),
(223,186,o),
(224,209,o),
(202,225,c),
(176,243,o),
(146,260,o),
(115,238,c),
(72,209,o),
(51,212,o),
(56,269,c),
(56,273,o),
(54,278,o),
(56,268,c),
(56,338,o),
(58,394,o),
(56,449,c),
(55,494,o),
(54,540,o),
(51,587,c),
(47,623,o),
(60,635,o),
(97,627,c),
(176,610,o),
(176,610,o),
(167,507,c),
(164,483,o),
(166,458,o),
(166,434,c),
(166,410,o),
(166,386,o),
(166,360,c),
(194,354,o),
(224,351,o),
(250,332,c),
(324,280,o),
(349,166,o),
(305,82,c),
(270,14,o),
(158,-24,o),
(80,6,c),
(59,14,o),
(49,31,o),
(54,53,c),
(59,77,o),
(49,103,o),
(63,130,c)
);
}
);
width = 377;
}
);
},
{
glyphname = "mem-hb.case";
lastChange = "2022-06-16 11:05:20 +0000";
layers = (
{
layerId = m01;
shapes = (
{
closed = 1;
nodes = (
(210,140,o),
(300,200,o),
(300,239,c),
(262,249,o),
(229,234,o),
(199,213,c),
(173,196,o),
(141,182,o),
(158,140,c)
);
},
{
closed = 1;
nodes = (
(161,327,o),
(154,312,o),
(153,293,c),
(210,342,o),
(270,359,o),
(339,342,c),
(374,333,o),
(398,310,o),
(406,277,c),
(413,241,o),
(415,206,o),
(391,174,c),
(333,96,o),
(256,50,o),
(157,41,c),
(157,-1,l),
(123,-14,o),
(92,-2,o),
(53,-4,c),
(53,32,o),
(53,67,o),
(53,101,c),
(53,169,o),
(54,236,o),
(50,303,c),
(49,343,o),
(70,344,o),
(98,342,c),
(115,340,o),
(131,340,o),
(147,339,c)
);
}
);
width = 461;
}
);
},
{
glyphname = "nun-hb.case";
lastChange = "2022-06-16 11:05:20 +0000";
layers = (
{
layerId = m01;
shapes = (
{
closed = 1;
nodes = (
(68,76,o),
(82,65,o),
(95,67,c),
(177,84,o),
(246,119,o),
(289,195,c),
(295,205,o),
(298,217,o),
(289,229,c),
(281,239,o),
(269,240,o),
(259,236,c),
(194,218,o),
(148,173,o),
(102,130,c),
(91,121,o),
(83,105,o),
(68,110,c),
(52,117,o),
(53,134,o),
(53,147,c),
(51,201,o),
(50,257,o),
(50,313,c),
(50,331,o),
(59,346,o),
(79,344,c),
(103,343,o),
(125,341,o),
(150,339,c),
(150,289,l),
(186,322,o),
(224,338,o),
(268,343,c),
(374,355,o),
(432,286,o),
(398,183,c),
(367,84,o),
(290,31,o),
(199,1,c),
(128,-22,o),
(74,4,o),
(57,58,c)
);
}
);
width = 458;
}
);
},
{
glyphname = "samekh-hb.case";
lastChange = "2022-06-16 11:05:39 +0000";
layers = (
{
layerId = m01;
shapes = (
{
closed = 1;
nodes = (
(188,213,o),
(184,193,o),
(187,176,c),
(192,154,o),
(175,124,o),
(200,111,c),
(225,97,o),
(255,96,o),
(279,114,c),
(313,140,o),
(311,178,o),
(295,209,c),
(273,249,o),
(230,237,o),
(191,235,c)
);
},
{
closed = 1;
nodes = (
(178,335,o),
(210,344,o),
(243,344,c),
(324,345,o),
(378,305,o),
(406,218,c),
(424,159,o),
(390,70,o),
(338,36,c),
(300,12,o),
(300,12,o),
(190,6,c),
(191,-51,o),
(184,-107,o),
(164,-161,c),
(156,-180,o),
(143,-202,o),
(123,-201,c),
(101,-200,o),
(78,-185,o),
(56,-174,c),
(49,-171,o),
(48,-161,o),
(53,-153,c),
(99,-88,o),
(91,-15,o),
(89,58,c),
(87,146,o),
(93,235,o),
(84,323,c),
(83,342,o),
(100,347,o),
(115,344,c),
(126,343,o),
(136,340,o),
(143,347,c)
);
}
);
width = 461;
}
);
},
{
glyphname = "ayin-hb.case";
lastChange = "2022-06-16 11:05:41 +0000";
layers = (
{
layerId = m01;
shapes = (
{
closed = 1;
nodes = (
(189,275,o),
(226,197,o),
(265,114,c),
(286,157,o),
(304,196,o),
(323,234,c),
(341,273,o),
(359,312,o),
(377,349,c),
(383,358,o),
(389,360,o),
(398,360,c),
(422,356,o),
(446,355,o),
(470,349,c),
(492,344,o),
(487,327,o),
(480,313,c),
(432,215,o),
(384,118,o),
(336,20,c),
(301,-50,o),
(264,-122,o),
(229,-192,c),
(224,-204,o),
(215,-213,o),
(202,-209,c),
(177,-201,o),
(152,-192,o),
(122,-181,c),
(141,-141,o),
(150,-98,o),
(174,-67,c),
(229,-2,o),
(185,50,o),
(159,105,c),
(125,175,o),
(89,245,o),
(53,317,c),
(48,325,o),
(48,336,o),
(57,339,c),
(89,347,o),
(120,352,o),
(148,358,c)
);
}
);
width = 536;
}
);
},
{
glyphname = "pe-hb.case";
lastChange = "2022-06-16 11:05:43 +0000";
layers = (
{
layerId = m01;
shapes = (
{
closed = 1;
nodes = (
(268,68,o),
(265,34,o),
(243,13,c),
(216,-12,o),
(182,8,o),
(155,21,c),
(82,52,o),
(37,138,o),
(53,210,c),
(71,290,o),
(143,350,o),
(225,350,c),
(272,350,o),
(319,349,o),
(364,348,c),
(376,348,o),
(384,345,o),
(384,332,c),
(384,167,o),
(385,3,o),
(382,-162,c),
(381,-216,o),
(337,-187,o),
(311,-190,c),
(286,-192,o),
(281,-174,o),
(282,-149,c),
(286,-86,o),
(286,-21,o),
(287,43,c),
(289,103,o),
(286,162,o),
(287,220,c),
(289,243,o),
(279,253,o),
(257,249,c),
(226,242,o),
(188,246,o),
(169,215,c),
(138,168,o),
(179,103,o),
(238,102,c),
(248,102,o),
(259,100,o),
(272,100,c)
);
}
);
width = 434;
}
);
},
{
glyphname = "tsadi-hb.case";
lastChange = "2022-06-16 11:05:20 +0000";
layers = (
{
layerId = m01;
shapes = (
{
closed = 1;
nodes = (
(92,-79,o),
(121,-101,o),
(155,-102,c),
(199,-104,o),
(242,-96,o),
(260,-50,c),
(276,-12,o),
(265,27,o),
(226,49,c),
(190,68,o),
(150,69,o),
(111,53,c),
(85,42,o),
(73,46,o),
(73,77,c),
(73,187,o),
(72,296,o),
(70,405,c),
(70,422,o),
(77,431,o),
(95,430,c),
(116,429,o),
(137,427,o),
(157,426,c),
(170,425,o),
(173,414,o),
(173,403,c),
(172,335,o),
(173,267,o),
(173,183,c),
(217,278,o),
(268,344,o),
(381,314,c),
(340,257,o),
(301,202,o),
(260,145,c),
(291,127,o),
(321,110,o),
(341,81,c),
(383,19,o),
(380,-46,o),
(346,-109,c),
(306,-182,o),
(237,-205,o),
(159,-200,c),
(131,-199,o),
(104,-191,o),
(78,-184,c),
(52,-176,o),
(40,-106,o),
(61,-68,c)
);
}
);
width = 431;
}
);
},
{
glyphname = "qof-hb.case";
lastChange = "2022-06-16 11:05:20 +0000";
layers = (
{
layerId = m01;
shapes = (
{
closed = 1;
nodes = (
(155,148,o),
(190,108,o),
(241,108,c),
(286,108,o),
(330,148,o),
(330,191,c),
(330,239,o),
(295,281,o),
(255,282,c),
(187,283,o),
(155,259,o),
(155,204,c)
);
},
{
closed = 1;
nodes = (
(289,-85,l),
(255,-89,o),
(220,-98,o),
(198,-77,c),
(176,-56,o),
(198,-18,o),
(187,10,c),
(65,97,o),
(29,168,o),
(61,257,c),
(90,337,o),
(173,394,o),
(251,389,c),
(336,382,o),
(414,319,o),
(429,242,c),
(449,140,o),
(406,69,o),
(289,10,c)
);
}
);
width = 484;
}
);
},
{
glyphname = "resh-hb.case";
lastChange = "2022-06-16 11:05:20 +0000";
layers = (
{
layerId = m01;
shapes = (
{
closed = 1;
nodes = (
(76,273,o),
(6,359,o),
(117,337,c),
(131,323,o),
(154,316,o),
(178,303,c),
(180,315,o),
(183,324,o),
(187,338,c),
(214,337,o),
(243,336,o),
(271,332,c),
(280,332,o),
(282,323,o),
(282,315,c),
(282,219,o),
(282,122,o),
(282,26,c),
(282,8,o),
(273,1,o),
(256,1,c),
(244,0,o),
(234,1,o),
(223,0,c),
(192,-3,o),
(175,7,o),
(178,43,c),
(182,83,o),
(179,125,o),
(180,165,c),
(180,204,o),
(144,230,o),
(89,233,c),
(78,233,o),
(65,229,o),
(50,245,c)
);
}
);
width = 332;
}
);
},
{
glyphname = "shin-hb.case";
lastChange = "2022-06-16 11:05:20 +0000";
layers = (
{
layerId = m01;
shapes = (
{
closed = 1;
nodes = (
(264,85,o),
(315,101,o),
(332,140,c),
(340,159,o),
(345,183,o),
(323,205,c),
(289,172,o),
(250,152,o),
(206,140,c),
(210,124,o),
(212,113,o),
(215,102,c)
);
},
{
closed = 1;
nodes = (
(232,247,o),
(270,276,o),
(292,322,c),
(309,356,o),
(323,357,o),
(352,336,c),
(448,265,o),
(474,140,o),
(388,44,c),
(350,1,o),
(296,-3,o),
(242,-2,c),
(231,-2,o),
(219,2,o),
(209,1,c),
(147,-12,o),
(123,19,o),
(111,74,c),
(94,152,o),
(72,228,o),
(51,306,c),
(47,323,o),
(52,335,o),
(73,334,c),
(95,332,o),
(117,334,o),
(140,330,c),
(162,326,o),
(159,303,o),
(164,287,c),
(171,270,o),
(173,252,o),
(179,232,c)
);
}
);
width = 490;
}
);
},
{
glyphname = "tav-hb.case";
lastChange = "2022-06-16 11:05:20 +0000";
layers = (
{
layerId = m01;
shapes = (
{
closed = 1;
nodes = (
(290,410,l),
(163,410,l),
(147,440,o),
(164,506,o),
(184,506,c),
(217,507,o),
(251,506,o),
(286,506,c),
(286,532,o),
(289,559,o),
(286,587,c),
(284,613,o),
(288,626,o),
(318,626,c),
(410,624,o),
(392,632,o),
(394,549,c),
(396,533,o),
(394,519,o),
(394,503,c),
(423,496,o),
(452,507,o),
(476,497,c),
(476,410,l),
(449,401,o),
(423,406,o),
(396,406,c),
(396,377,o),
(396,349,o),
(396,320,c),
(396,243,o),
(394,165,o),
(394,88,c),
(394,82,o),
(394,77,o),
(394,71,c),
(397,-13,o),
(392,0,o),
(310,0,c),
(294,1,o),
(289,16,o),
(289,30,c),
(289,78,o),
(289,126,o),
(289,174,c),
(289,211,o),
(243,255,o),
(207,252,c),
(171,251,o),
(151,220,o),
(158,173,c),
(164,122,o),
(187,79,o),
(216,39,c),
(229,21,o),
(225,9,o),
(204,4,c),
(129,-17,o),
(122,-17,o),
(87,53,c),
(50,129,o),
(31,208,o),
(77,285,c),
(117,354,o),
(202,372,o),
(273,336,c),
(279,333,o),
(284,330,o),
(290,328,c)
);
}
